<?xml version="1.0" encoding="iso-8859-1"?>
<!-- Generator: Adobe Illustrator 19.0.0, SVG Export Plug-In . SVG Version: 6.00 Build 0)  -->
<svg version="1.1" id="Capa_1" xmlns="http://www.w3.org/2000/svg" xmlns:xlink="http://www.w3.org/1999/xlink" x="0px" y="0px"
	 viewBox="0 0 496 496" style="enable-background:new 0 0 496 496;" xml:space="preserve">
<path style="fill:#FFA64D;" d="M101.44,195.792c0-19.768,16.024-35.792,35.792-35.792h27.704c42.264,0,83.8-11.032,120.496-32
	c13.256,0,24,10.744,24,24v72v8c0,11.176-1.824,21.912-5.08,32h29.088v-32h51.352c8.464-8.08,12.648-18.824,12.648-32
	c0-26.472-21.528-48-48-48v-32c0-33.032-25.16-60.304-57.32-63.656C284.376,23.8,254.84,0,220.872,0H205.44
	c-79.4,0-144,64.6-144,144v8c-26.472,0-48,21.528-48,48c0,14.112,6.056,27.056,16.368,36c-10.312,8.944-16.368,21.888-16.368,36
	c0,20.64,13.112,38.576,32.088,45.208c-0.056,0.936-0.088,1.864-0.088,2.792c0,26.472,21.528,48,48,48s48-21.528,48-48
	c0-2.2-0.2-4.36-0.496-6.504C116.912,294.44,101.44,265.056,101.44,232v-8V195.792z"/>
<g>
	<path style="fill:#333333;" d="M453.44,264h-40v-32h-80v32h-20.672c3.08-10.336,4.672-21.048,4.672-32v-80
		c0-17.648-14.352-32-32-32h-2.128l-1.84,1.056C246.04,141.304,205.744,152,164.944,152H137.24c-24.152,0-43.8,19.648-43.8,43.792
		V232c0,41.344,22.584,77.448,56,96.848v8.288l-11.928,1.832c-3.104,7.184-7.92,13.464-13.928,18.328l29.76-4.576l52.096,86.832
		l52.056-86.768l18.616,3.104c5.264,2.552,11.096,4.112,17.328,4.112h6.84l25.2,7.456c19.496,10.008,34.408,27.656,41.056,48.544
		H277.44c-13.232,0-24,10.768-24,24v40H102.504l6.872-55.008l-15.872-1.984L86.376,480H24.32l19.872-63.624
		c6.624-21.168,21.744-39.024,41.512-49.064c-6.816-1.112-13.168-3.624-18.712-7.296C49.088,372.464,35.48,390.632,28.92,411.6
		L2.56,496h250.88h8h232V304C493.44,281.944,475.496,264,453.44,264z M349.44,248h48v16h-48V248z M109.44,232v-36.208
		c0-15.32,12.472-27.792,27.8-27.792h16.2h11.504c42.8,0,85.064-11.016,122.408-31.888c7.92,0.944,14.088,7.712,14.088,15.888v80
		c0,11.032-1.952,21.752-5.584,32h-2.416c-22.056,0-40,17.944-40,40v11.096c-14.56,8.416-31.04,12.904-48,12.904
		C152.504,328,109.44,284.936,109.44,232z M165.44,341.784v-5.296c12.44,4.784,25.896,7.512,40,7.512
		c13.784,0,27.312-2.544,40-7.392v5.184l-40,66.656L165.44,341.784z M269.44,320v-16c0-13.232,10.768-24,24-24h24v32h16v-32h16v64
		h-56C280.208,344,269.44,333.232,269.44,320z M343.848,360h37.592v50.232C374.728,389.84,361.368,372.176,343.848,360z M269.44,480
		v-40c0-4.408,3.584-8,8-8h120v-88h-32v-64h48h40c13.232,0,24,10.768,24,24v112h-17.472c0.896-2.512,1.472-5.184,1.472-8
		c0-13.232-10.768-24-24-24s-24,10.768-24,24s10.768,24,24,24h40v48H269.44z M437.44,416c-4.416,0-8-3.592-8-8s3.584-8,8-8
		s8,3.592,8,8S441.856,416,437.44,416z"/>
	<path style="fill:#333333;" d="M461.44,320h-48v48h48V320z M445.44,352h-16v-16h16V352z"/>
	<path style="fill:#333333;" d="M133.44,188c0,11.024,8.968,20,20,20s20-8.976,20-20s-8.968-20-20-20S133.44,176.976,133.44,188z
		 M153.44,184c2.2,0,4,1.792,4,4s-1.8,4-4,4s-4-1.792-4-4S151.24,184,153.44,184z"/>
	<path style="fill:#333333;" d="M257.44,208c11.032,0,20-8.976,20-20s-8.968-20-20-20s-20,8.976-20,20S246.408,208,257.44,208z
		 M257.44,184c2.2,0,4,1.792,4,4s-1.8,4-4,4s-4-1.792-4-4S255.24,184,257.44,184z"/>
	<path style="fill:#333333;" d="M269.44,232h-16c0,26.472-21.528,48-48,48s-48-21.528-48-48h-16c0,35.288,28.712,64,64,64
		S269.44,267.288,269.44,232z"/>
</g>
<rect x="269.44" y="464" style="fill:#FFA64D;" width="208" height="16"/>
<g>
</g>
<g>
</g>
<g>
</g>
<g>
</g>
<g>
</g>
<g>
</g>
<g>
</g>
<g>
</g>
<g>
</g>
<g>
</g>
<g>
</g>
<g>
</g>
<g>
</g>
<g>
</g>
<g>
</g>
</svg>
